<?xml version="1.0" encoding="us-ascii" standalone="no"?><svg xmlns="http://www.w3.org/2000/svg" xmlns:xlink="http://www.w3.org/1999/xlink" contentStyleType="text/css" height="191px" preserveAspectRatio="none" style="width:278px;height:191px;" version="1.1" viewBox="0 0 278 191" width="278px" zoomAndPan="magnify"><defs/><g><!--cluster valve_assembly--><g id="cluster_valve_assembly"><rect fill="none" height="178" rx="2.5" ry="2.5" style="stroke:#181818;stroke-width:1.0;" width="265" x="7" y="7"/><rect fill="none" height="10" style="stroke:#181818;stroke-width:1.0;" width="15" x="252" y="12"/><rect fill="none" height="2" style="stroke:#181818;stroke-width:1.0;" width="4" x="250" y="14"/><rect fill="none" height="2" style="stroke:#181818;stroke-width:1.0;" width="4" x="250" y="18"/><text fill="#000000" font-family="sans-serif" font-size="14" font-weight="bold" lengthAdjust="spacing" textLength="122" x="78.5" y="32.9951">valve_assembly</text></g><!--entity Gripper--><g id="elem_Gripper"><rect fill="#F1F1F1" height="46.2969" rx="2.5" ry="2.5" style="stroke:#181818;stroke-width:0.5;" width="91" x="23" y="108.85"/><rect fill="#F1F1F1" height="10" style="stroke:#181818;stroke-width:0.5;" width="15" x="94" y="113.85"/><rect fill="#F1F1F1" height="2" style="stroke:#181818;stroke-width:0.5;" width="4" x="92" y="115.85"/><rect fill="#F1F1F1" height="2" style="stroke:#181818;stroke-width:0.5;" width="4" x="92" y="119.85"/><text fill="#000000" font-family="sans-serif" font-size="14" lengthAdjust="spacing" textLength="51" x="38" y="141.8451">Gripper</text></g><!--entity end_effector--><g id="elem_end_effector"><ellipse cx="68.5" cy="65" fill="#F1F1F1" rx="8" ry="8" style="stroke:#181818;stroke-width:0.5;"/><text fill="#000000" font-family="sans-serif" font-size="14" lengthAdjust="spacing" textLength="87" x="25" y="94.9951">end_effector</text></g><!--entity Robot--><g id="elem_Robot"><rect fill="#F1F1F1" height="46.2969" rx="2.5" ry="2.5" style="stroke:#181818;stroke-width:0.5;" width="82" x="174" y="41.85"/><rect fill="#F1F1F1" height="10" style="stroke:#181818;stroke-width:0.5;" width="15" x="236" y="46.85"/><rect fill="#F1F1F1" height="2" style="stroke:#181818;stroke-width:0.5;" width="4" x="234" y="48.85"/><rect fill="#F1F1F1" height="2" style="stroke:#181818;stroke-width:0.5;" width="4" x="234" y="52.85"/><text fill="#000000" font-family="sans-serif" font-size="14" lengthAdjust="spacing" textLength="42" x="189" y="74.8451">Robot</text></g><!--entity PLC--><g id="elem_PLC"><rect fill="#F1F1F1" height="46.2969" rx="2.5" ry="2.5" style="stroke:#181818;stroke-width:0.5;" width="66" x="182" y="122.85"/><rect fill="#F1F1F1" height="10" style="stroke:#181818;stroke-width:0.5;" width="15" x="228" y="127.85"/><rect fill="#F1F1F1" height="2" style="stroke:#181818;stroke-width:0.5;" width="4" x="226" y="129.85"/><rect fill="#F1F1F1" height="2" style="stroke:#181818;stroke-width:0.5;" width="4" x="226" y="133.85"/><text fill="#000000" font-family="sans-serif" font-size="14" lengthAdjust="spacing" textLength="26" x="197" y="155.8451">PLC</text></g><!--link Gripper to end_effector--><g id="link_Gripper_end_effector"><path d="M68.5,108.45 C68.5,98.98 68.5,89.52 68.5,80.06 " fill="none" id="Gripper-to-end_effector" style="stroke:#181818;stroke-width:1.0;"/><polygon fill="#181818" points="68.5,75.16,64.5,84.16,68.5,80.16,72.5,84.16,68.5,75.16" style="stroke:#181818;stroke-width:1.0;"/></g><!--link end_effector to Robot--><g id="link_end_effector_Robot"><path d="M77.68,65 C95.83,65 140.49,65 173.77,65 " fill="none" id="end_effector-Robot" style="stroke:#181818;stroke-width:1.0;"/></g><!--link PLC to Robot--><g id="link_PLC_Robot"><path d="M215,122.59 C215,113.15 215,103.71 215,94.27 " fill="none" id="PLC-to-Robot" style="stroke:#181818;stroke-width:1.0;"/><polygon fill="#181818" points="215,89.39,211,98.39,215,94.39,219,98.39,215,89.39" style="stroke:#181818;stroke-width:1.0;"/></g><!--SRC=[LOon3i8m34JtV8L76FeBB1rO610hGbNQk2LgOaUEMmaX_ftGPk6cExsdoxEdPCL6wEqmJy8BkPO32wXOoWKXgGauAYY3-EcfuBpWe9x931mJKp5WjM75pkQCiGylU1i39VUp-9HG7jkg0veJ78v8hiDnB4SiLRvnpxgh_noQ1ZPOnUkbtRLIVc-LVRu0]--></g></svg>