<?xml version="1.0" encoding="us-ascii" standalone="no"?><svg xmlns="http://www.w3.org/2000/svg" xmlns:xlink="http://www.w3.org/1999/xlink" contentStyleType="text/css" height="684px" preserveAspectRatio="none" style="width:351px;height:684px;background:#FFFFFF;" version="1.1" viewBox="0 0 351 684" width="351px" zoomAndPan="magnify"><defs/><g><ellipse cx="119.5" cy="20" fill="#222222" rx="10" ry="10" style="stroke:#222222;stroke-width:1.0;"/><polygon fill="#F1F1F1" points="66.5,50,172.5,50,184.5,62,172.5,74,66.5,74,54.5,62,66.5,50" style="stroke:#181818;stroke-width:0.5;"/><text fill="#000000" font-family="sans-serif" font-size="11" lengthAdjust="spacing" textLength="106" x="66.5" y="65.8081">All parts detected?</text><text fill="#000000" font-family="sans-serif" font-size="11" lengthAdjust="spacing" textLength="14" x="40.5" y="59.4058">no</text><text fill="#000000" font-family="sans-serif" font-size="11" lengthAdjust="spacing" textLength="20" x="184.5" y="59.4058">yes</text><rect fill="#F1F1F1" height="33.9688" rx="12.5" ry="12.5" style="stroke:#181818;stroke-width:0.5;" width="51" x="11" y="84"/><text fill="#000000" font-family="sans-serif" font-size="12" lengthAdjust="spacing" textLength="31" x="21" y="105.1387">error</text><rect fill="#F1F1F1" height="33.9688" rx="12.5" ry="12.5" style="stroke:#181818;stroke-width:0.5;" width="113" x="146" y="84"/><text fill="#000000" font-family="sans-serif" font-size="12" lengthAdjust="spacing" textLength="93" x="156" y="105.1387">Start assembly</text><rect fill="#F1F1F1" height="33.9688" rx="12.5" ry="12.5" style="stroke:#181818;stroke-width:0.5;" width="136" x="134.5" y="137.9688"/><text fill="#000000" font-family="sans-serif" font-size="12" lengthAdjust="spacing" textLength="116" x="144.5" y="159.1074">Grab base of valve</text><rect fill="#F1F1F1" height="33.9688" rx="12.5" ry="12.5" style="stroke:#181818;stroke-width:0.5;" width="241" x="82" y="191.9375"/><text fill="#000000" font-family="sans-serif" font-size="12" lengthAdjust="spacing" textLength="221" x="92" y="213.0762">Move to position x mm above part x</text><rect fill="#F1F1F1" height="33.9688" rx="12.5" ry="12.5" style="stroke:#181818;stroke-width:0.5;" width="218" x="93.5" y="289.9063"/><text fill="#000000" font-family="sans-serif" font-size="12" lengthAdjust="spacing" textLength="198" x="103.5" y="311.0449">Lower and twist base part x mm</text><rect fill="#F1F1F1" height="33.9688" rx="12.5" ry="12.5" style="stroke:#181818;stroke-width:0.5;" width="108" x="148.5" y="343.875"/><text fill="#000000" font-family="sans-serif" font-size="12" lengthAdjust="spacing" textLength="88" x="158.5" y="365.0137">Move x mm up</text><rect fill="#F1F1F1" height="33.9688" rx="12.5" ry="12.5" style="stroke:#181818;stroke-width:0.5;" width="131" x="137" y="446.2461"/><text fill="#000000" font-family="sans-serif" font-size="12" lengthAdjust="spacing" textLength="111" x="147" y="467.3848">move to next part</text><polygon fill="#F1F1F1" points="115.5,397.8438,289.5,397.8438,301.5,409.8438,289.5,421.8438,115.5,421.8438,103.5,409.8438,115.5,397.8438" style="stroke:#181818;stroke-width:0.5;"/><text fill="#000000" font-family="sans-serif" font-size="11" lengthAdjust="spacing" textLength="14" x="206.5" y="432.0542">no</text><text fill="#000000" font-family="sans-serif" font-size="11" lengthAdjust="spacing" textLength="174" x="115.5" y="413.6519">part still detected or last part?</text><text fill="#000000" font-family="sans-serif" font-size="11" lengthAdjust="spacing" textLength="20" x="301.5" y="407.2495">yes</text><polygon fill="#F1F1F1" points="202.5,500.2148,214.5,512.2148,202.5,524.2148,190.5,512.2148,202.5,500.2148" style="stroke:#181818;stroke-width:0.5;"/><polygon fill="#F1F1F1" points="202.5,245.9063,214.5,257.9063,202.5,269.9063,190.5,257.9063,202.5,245.9063" style="stroke:#181818;stroke-width:0.5;"/><polygon fill="#F1F1F1" points="138,544.2148,267,544.2148,279,556.2148,267,568.2148,138,568.2148,126,556.2148,138,544.2148" style="stroke:#181818;stroke-width:0.5;"/><text fill="#000000" font-family="sans-serif" font-size="11" lengthAdjust="spacing" textLength="20" x="206.5" y="578.4253">yes</text><text fill="#000000" font-family="sans-serif" font-size="11" lengthAdjust="spacing" textLength="129" x="138" y="560.0229">valve fully assembled?</text><text fill="#000000" font-family="sans-serif" font-size="11" lengthAdjust="spacing" textLength="14" x="279" y="553.6206">no</text><rect fill="#F1F1F1" height="33.9688" rx="12.5" ry="12.5" style="stroke:#181818;stroke-width:0.5;" width="146" x="129.5" y="599.9253"/><text fill="#000000" font-family="sans-serif" font-size="12" lengthAdjust="spacing" textLength="126" x="139.5" y="621.064">go to home position</text><ellipse cx="202.5" cy="663.894" fill="none" rx="10" ry="10" style="stroke:#222222;stroke-width:1.5;"/><line style="stroke:#222222;stroke-width:2.5;" x1="196.3128" x2="208.6872" y1="657.7069" y2="670.0812"/><line style="stroke:#222222;stroke-width:2.5;" x1="208.6872" x2="196.3128" y1="657.7069" y2="670.0812"/><line style="stroke:#181818;stroke-width:1.0;" x1="202.5" x2="202.5" y1="117.9688" y2="137.9688"/><polygon fill="#181818" points="198.5,127.9688,202.5,137.9688,206.5,127.9688,202.5,131.9688" style="stroke:#181818;stroke-width:1.0;"/><line style="stroke:#181818;stroke-width:1.0;" x1="202.5" x2="202.5" y1="171.9375" y2="191.9375"/><polygon fill="#181818" points="198.5,181.9375,202.5,191.9375,206.5,181.9375,202.5,185.9375" style="stroke:#181818;stroke-width:1.0;"/><line style="stroke:#181818;stroke-width:1.0;" x1="202.5" x2="202.5" y1="323.875" y2="343.875"/><polygon fill="#181818" points="198.5,333.875,202.5,343.875,206.5,333.875,202.5,337.875" style="stroke:#181818;stroke-width:1.0;"/><line style="stroke:#181818;stroke-width:1.0;" x1="202.5" x2="202.5" y1="421.8438" y2="446.2461"/><polygon fill="#181818" points="198.5,436.2461,202.5,446.2461,206.5,436.2461,202.5,440.2461" style="stroke:#181818;stroke-width:1.0;"/><line style="stroke:#181818;stroke-width:1.0;" x1="301.5" x2="313.5" y1="409.8438" y2="409.8438"/><polygon fill="#181818" points="309.5,453.2305,313.5,463.2305,317.5,453.2305,313.5,457.2305" style="stroke:#181818;stroke-width:1.0;"/><line style="stroke:#181818;stroke-width:1.0;" x1="313.5" x2="313.5" y1="409.8438" y2="512.2148"/><line style="stroke:#181818;stroke-width:1.0;" x1="313.5" x2="214.5" y1="512.2148" y2="512.2148"/><polygon fill="#181818" points="224.5,508.2148,214.5,512.2148,224.5,516.2148,220.5,512.2148" style="stroke:#181818;stroke-width:1.0;"/><line style="stroke:#181818;stroke-width:1.0;" x1="202.5" x2="202.5" y1="480.2148" y2="500.2148"/><polygon fill="#181818" points="198.5,490.2148,202.5,500.2148,206.5,490.2148,202.5,494.2148" style="stroke:#181818;stroke-width:1.0;"/><line style="stroke:#181818;stroke-width:1.0;" x1="202.5" x2="202.5" y1="377.8438" y2="397.8438"/><polygon fill="#181818" points="198.5,387.8438,202.5,397.8438,206.5,387.8438,202.5,391.8438" style="stroke:#181818;stroke-width:1.0;"/><line style="stroke:#181818;stroke-width:1.0;" x1="202.5" x2="202.5" y1="269.9063" y2="289.9063"/><polygon fill="#181818" points="198.5,279.9063,202.5,289.9063,206.5,279.9063,202.5,283.9063" style="stroke:#181818;stroke-width:1.0;"/><line style="stroke:#181818;stroke-width:1.0;" x1="279" x2="325.5" y1="556.2148" y2="556.2148"/><polygon fill="#181818" points="321.5,404.2617,325.5,394.2617,329.5,404.2617,325.5,400.2617" style="stroke:#181818;stroke-width:1.0;"/><line style="stroke:#181818;stroke-width:1.0;" x1="325.5" x2="325.5" y1="257.9063" y2="556.2148"/><line style="stroke:#181818;stroke-width:1.0;" x1="325.5" x2="214.5" y1="257.9063" y2="257.9063"/><polygon fill="#181818" points="224.5,253.9063,214.5,257.9063,224.5,261.9063,220.5,257.9063" style="stroke:#181818;stroke-width:1.0;"/><line style="stroke:#181818;stroke-width:1.0;" x1="202.5" x2="202.5" y1="524.2148" y2="544.2148"/><polygon fill="#181818" points="198.5,534.2148,202.5,544.2148,206.5,534.2148,202.5,538.2148" style="stroke:#181818;stroke-width:1.0;"/><line style="stroke:#181818;stroke-width:1.0;" x1="202.5" x2="202.5" y1="225.9063" y2="245.9063"/><polygon fill="#181818" points="198.5,235.9063,202.5,245.9063,206.5,235.9063,202.5,239.9063" style="stroke:#181818;stroke-width:1.0;"/><line style="stroke:#181818;stroke-width:1.0;" x1="202.5" x2="202.5" y1="568.2148" y2="599.9253"/><polygon fill="#181818" points="198.5,589.9253,202.5,599.9253,206.5,589.9253,202.5,593.9253" style="stroke:#181818;stroke-width:1.0;"/><line style="stroke:#181818;stroke-width:1.0;" x1="202.5" x2="202.5" y1="633.894" y2="653.894"/><polygon fill="#181818" points="198.5,643.894,202.5,653.894,206.5,643.894,202.5,647.894" style="stroke:#181818;stroke-width:1.0;"/><line style="stroke:#181818;stroke-width:1.0;" x1="54.5" x2="36.5" y1="62" y2="62"/><line style="stroke:#181818;stroke-width:1.0;" x1="36.5" x2="36.5" y1="62" y2="84"/><polygon fill="#181818" points="32.5,74,36.5,84,40.5,74,36.5,78" style="stroke:#181818;stroke-width:1.0;"/><line style="stroke:#181818;stroke-width:1.0;" x1="184.5" x2="202.5" y1="62" y2="62"/><line style="stroke:#181818;stroke-width:1.0;" x1="202.5" x2="202.5" y1="62" y2="84"/><polygon fill="#181818" points="198.5,74,202.5,84,206.5,74,202.5,78" style="stroke:#181818;stroke-width:1.0;"/><line style="stroke:#181818;stroke-width:1.0;" x1="119.5" x2="119.5" y1="30" y2="50"/><polygon fill="#181818" points="115.5,40,119.5,50,123.5,40,119.5,44" style="stroke:#181818;stroke-width:1.0;"/><!--SRC=[PP0xSiCm34HxdM9B-GfIaKdbngbo0iY28ivGX8Q4zRcz-P6jJC8A11SFt0rANYipeFwq5dEy1FIiV5VkFoxGaHrg9vSAyJJilVWsrr54zx5Y6nZrpk5GV2SUA0IUEhiNQNFrrA6Zg9G12zc5ZuSlMHWgc2KODUAmOPf0NMgdls0hGiypa-OopzraPGzoFNGrGGkx34H0UmhpWWnzp6SxsStge2QwVlc5U5YAkFJsp_oREHsVThmLwGd-aqPkkTuClqnW7OsDeXm3XeUr-okkdBW9UIMSw45gVYIj6sNYTr1j5RbF]--></g></svg>